**ABCDEFGHIJKLMNOPQRSTUVWXYZabcdefghijklmnopqrstuvwxyz**************************
**PARASOLID !"#$%&'()*+,-./:;<=>?@[\]^_`{|}~0123456789**************************
**PART1;
MC=unknown;
MC_MODEL=unknown;
MC_ID=unknown;
OS=unknown;
OS_RELEASE=unknown;
FRU=Parasolid 37.0.209;
APPL=Onshape;
SITE=unknown;
USER=unknown;
FORMAT=text;
GUISE=transmit;
KEY=BTGapi::writeModels_.xmt;
FILE=BTGapi::writeModels_.xmt;
DATE=2025-04-28T22:20:35 (UTC);
**PART2;
SCH=SCH_3700209_36001;
USFLD_SIZE=0;
**PART3;
**END_OF_HEADER*****************************************************************
T51 : TRANSMIT FILE created by modeller version 370020917 SCH_3501000_351020 12
 1 529 2 3 0 0 0 0 0 0 0 1e3 1e-8 0 4 0 1 0 1 2 5 0 6 7 8 0 0 9 10 11 0 0 0 0 0
 0 0 81 1 2 509 12 1 13 0 14 15 16 70 3 0 4 T1 0 0 6 20 1 17 17 13 5 160 0 1 0 1
8 0 0 19 0 50 6 155 0 18 20 0 0 +-704613787042026e-32 .05 .081 -1 -1836970198721
03e-30 0 183697019872103e-30 -1 0 30 7 159 0 10 21 0 0 +0 0 .081 0 0 -1 29 8 131
 0 11 22 0 -555111512312578e-31 .1 0 19 9 54 0 1 19 0 23 0 V0 16 10 138 14 ?24 0
 25 7 0 0 1 18 11 109 26 27 0 28 8 ?1 81 1 26 527 12 11 29 0 30 31 32 17 27 0 33
 34 35 11 36 37 0 38 +18 28 113 30 39 11 40 22 ?1 81 1 30 526 12 28 41 0 42 26 4
3 17 39 0 44 45 46 28 47 48 0 49 +18 40 117 31 50 28 51 52 ?1 29 22 132 0 28 52
 8 .1 .1 0 29 52 133 0 40 53 22 .1 0 0 29 53 134 0 51 54 52 0 0 0 18 51 121 55 2
4 40 56 53 ?1 29 54 449 0 56 57 53 -555111512312578e-31 .1 .1 18 56 350 58 36 51
 59 54 ?1 29 57 450 0 59 60 54 .1 .1 .1 18 59 363 61 47 56 62 57 ?1 29 60 451 0
 62 63 57 .1 0 .1 18 62 361 64 65 59 66 60 ?1 29 63 452 0 66 0 60 0 0 .1 18 66 3
46 67 68 62 0 63 ?1 81 1 67 514 12 66 69 0 58 70 71 17 68 0 33 35 34 66 24 10 0
 72 -15 33 149 0 34 18 0 17 35 0 33 27 68 56 73 74 0 75 +17 34 0 33 68 27 51 38
 76 0 0 -17 24 0 77 50 72 51 68 10 0 78 +17 72 0 77 24 65 66 79 80 0 73 -15 77 1
47 0 50 81 0 17 65 0 77 72 50 62 82 25 0 79 -17 79 0 83 84 73 62 72 80 0 85 +16
 80 324 86 ?79 87 74 88 0 0 1 17 73 0 83 79 75 66 35 74 0 0 -15 83 410 0 73 89 9
0 17 75 0 83 73 84 56 46 91 0 0 -16 74 258 92 ?35 80 0 93 0 0 1 81 1 92 519 12 7
4 94 0 95 96 97 30 93 440 0 74 0 88 0 +-704613787042026e-32 .05 .1 -183697019872
103e-30 1 0 30 88 439 0 80 93 98 0 +.05 0 .1 1 0 0 30 98 438 0 87 88 99 0 +.1 .0
5 .1 -1387778780781444e-31 1 0 16 87 327 70 ?84 91 80 98 0 0 1 30 99 437 0 91 98
 100 0 +.05 .1 .1 1 0 0 16 91 276 95 ?46 101 87 99 0 0 1 31 100 436 0 101 99 102
 0 +.05 .05 .1 0 0 1 1 0 0 .025 16 101 321 103 ?104 76 91 100 0 0 1 30 102 130 0
 76 100 105 0 +-704613787042026e-32 .05 0 -183697019872103e-30 1 0 16 76 105 106
 ?38 107 101 102 0 0 1 30 105 129 0 107 102 108 0 +.05 0 0 1 0 0 16 107 101 42 ?
50 109 76 105 0 0 1 30 108 128 0 109 105 110 0 +.1 .05 0 -1387778780781444e-31 1
 0 16 109 97 111 ?49 112 107 108 0 0 1 30 110 127 0 112 108 113 0 +.05 .1 0 1 0
 0 16 112 93 114 ?115 116 109 110 0 0 1 31 113 126 0 116 110 117 0 +.05 .05 0 0
 0 1 1 0 0 .025 16 116 89 118 ?119 37 112 113 0 0 1 30 117 156 0 37 113 120 0 +-
555111512312578e-31 .1 .081 0 0 -1 16 37 135 121 ?27 48 116 117 0 0 1 30 120 157
 0 48 117 21 0 +.1 .1 .081 0 0 -1 16 48 136 122 ?39 25 37 120 0 0 1 30 21 158 0
 25 120 7 0 +.1 0 .081 0 0 -1 16 25 137 123 ?82 10 48 21 0 0 1 81 1 123 507 12 2
5 124 0 121 14 125 17 82 0 126 49 85 40 65 25 0 127 +15 126 145 0 49 128 0 17 49
 0 126 47 82 28 127 109 0 115 +17 85 0 126 82 47 62 84 87 0 0 -17 127 0 129 78 1
15 40 49 109 0 0 -15 129 87 0 38 130 131 17 78 0 129 38 127 51 50 107 0 34 -17 1
15 0 129 127 38 28 45 112 0 0 +17 38 0 129 115 78 11 34 76 0 45 +17 45 0 44 36 3
9 11 115 112 0 0 -15 44 143 0 45 132 0 17 36 0 44 46 45 56 27 37 0 35 -17 46 0 4
4 39 36 59 75 91 0 0 +14 132 144 133 ?134 128 44 5 135 +0 0 134 128 23 81 1 133
 503 12 132 136 0 137 138 139 14 134 140 140 ?130 132 141 5 142 +0 0 130 132 23
 14 128 146 143 ?132 81 126 5 144 -0 0 132 81 23 50 135 152 0 132 142 144 0 +.05
 .1 .081 0 1 0 0 0 1 13 23 55 0 0 0 0 0 0 9 18 14 18 150 137 ?81 0 33 5 6 +0 0 8
1 0 23 81 1 137 502 12 18 145 0 143 133 146 14 81 148 138 ?128 18 77 5 20 -0 0 1
28 18 23 81 1 138 504 12 81 147 0 133 122 148 50 20 154 0 81 144 6 0 +.05 0 .081
 0 1 0 0 0 1 50 144 153 0 128 135 20 0 +.1 .05 .081 -1 -1387778780781444e-31 0 1
387778780781444e-31 -1 0 80 1 12 149 150 9000 0 0 0 0 3 5 0 0 0 FFTFTFTTFFFFFFFF
3 81 1 147 494 151 81 152 138 145 153 154 81 1 122 505 12 48 155 0 138 121 156 8
4 3 148 JJC81 1 155 484 149 48 0 122 157 152 158 81 1 121 506 12 37 157 0 122 12
3 159 84 3 156 JJN81 1 157 483 149 37 0 121 124 155 160 84 3 159 JJJ80 1 149 161
 162 9000 0 0 0 0 3 6 0 0 0 FFTFTFTTFFFFFFFF1 81 1 124 482 149 25 0 123 163 157
 164 82 3 160 8 2 1 81 1 163 481 149 10 0 14 165 124 166 82 3 164 8 1 1 81 1 14
 508 12 10 163 0 123 2 167 81 1 165 480 149 1 0 168 169 163 170 82 3 166 8 0 1 8
1 1 168 490 171 1 165 172 0 0 173 81 1 169 409 149 89 0 174 175 165 176 82 3 170
 6 0 3 14 89 407 15 ?0 130 83 5 177 +0 0 0 130 23 81 1 174 499 151 89 169 15 178
 0 179 81 1 175 364 149 59 0 61 180 169 181 82 3 176 7 2 2 81 1 61 511 12 59 175
 0 15 64 182 81 1 180 362 149 62 0 64 183 175 184 82 3 181 7 7 0 81 1 64 512 12
 62 180 0 61 58 185 81 1 183 351 149 56 0 58 69 180 186 82 3 184 7 3 0 81 1 58 5
13 12 56 183 0 64 67 187 81 1 69 347 149 66 0 67 188 183 189 82 3 186 7 5 0 81 1
 188 329 149 87 0 70 190 69 191 82 3 189 7 1 0 81 1 70 515 12 87 188 0 67 86 192
 81 1 190 326 149 80 0 86 193 188 194 82 3 191 7 11 1 81 1 86 516 12 80 190 0 70
 103 195 81 1 193 323 149 101 0 103 196 190 197 82 3 194 7 5 1 81 1 103 517 12 1
01 193 0 86 95 198 81 1 196 278 149 91 0 95 94 193 199 82 3 197 7 13 1 81 1 95 5
18 12 91 196 0 103 92 200 81 1 94 260 149 74 0 92 201 196 202 82 3 199 7 7 1 81
 1 201 200 149 130 0 178 203 94 204 82 3 202 7 9 1 14 130 79 96 ?89 134 129 5 20
5 -0 0 89 134 23 81 1 178 498 151 130 201 96 206 174 207 81 1 203 197 149 116 0
 118 208 201 209 82 3 204 6 1 2 81 1 118 521 12 116 203 0 96 111 210 81 1 208 19
5 149 109 0 111 211 203 212 82 3 209 6 12 1 81 1 111 522 12 109 208 0 118 106 21
3 81 1 211 193 149 76 0 106 214 208 215 82 3 212 6 10 1 81 1 106 523 12 76 211 0
 111 114 216 81 1 214 191 149 112 0 114 217 211 218 82 3 215 6 8 1 81 1 114 524
 12 112 214 0 106 42 219 81 1 217 189 149 107 0 42 41 214 220 82 3 218 6 6 1 81
 1 42 525 12 107 217 0 114 30 221 81 1 41 183 149 28 0 30 29 217 222 82 3 220 6
 4 1 81 1 29 181 149 11 0 26 223 41 224 82 3 222 6 6 0 81 1 223 179 149 40 0 31
 225 29 226 82 3 224 6 4 0 81 1 31 528 12 40 223 0 26 55 227 81 1 225 177 149 51
 0 55 0 223 228 82 3 226 6 2 0 81 1 55 529 12 51 225 0 31 0 229 82 3 228 6 0 0 8
4 2 229 IH84 3 227 JHI84 3 221 JHR84 3 219 JHZ84 3 216 JHh84 3 213 JHp81 1 96 52
0 12 130 178 0 92 118 230 84 3 210 JHx84 3 230 JHG80 1 151 0 231 8001 0 0 0 0 3
 5 0 0 0 FFFFTFTFFFFFFFFF2 81 1 206 497 151 134 232 140 136 178 233 83 3 207 .61
5686274509804 .811764705882353 .929411764705882 81 1 232 489 149 134 0 206 234 0
 235 81 1 140 500 12 134 206 0 0 143 236 81 1 136 496 151 132 237 133 153 206 23
8 83 3 233 .615686274509804 .811764705882353 .929411764705882 81 1 237 486 149 1
32 0 136 152 239 240 81 1 153 495 151 128 234 143 147 136 241 83 3 238 .61568627
4509804 .811764705882353 .929411764705882 81 1 234 488 149 128 0 153 239 232 242
 81 1 143 501 12 128 153 0 140 137 243 83 3 241 .615686274509804 .81176470588235
3 .929411764705882 84 3 243 JJO81 1 239 487 149 18 0 145 237 234 244 82 3 242 8
 3 2 81 1 145 493 151 18 239 137 0 147 245 82 3 244 8 2 2 83 3 245 .615686274509
804 .811764705882353 .929411764705882 81 1 152 485 149 81 0 147 155 237 246 82 3
 240 8 1 2 82 3 246 8 0 2 84 3 236 JJS82 3 235 8 4 2 79 15 231 SDL/TYSA_COLOUR50
 205 125 0 130 177 142 0 +.05 .05 0 0 0 1 1 0 0 50 177 425 0 89 0 205 0 +.05 .05
 .1 0 0 1 1 0 0 51 142 151 0 134 205 135 0 -.05 .05 .081 0 0 -1 .025 -1 0 0 84 3
 200 JId84 3 198 JI184 3 195 JIV84 3 192 JIt84 3 187 JIU84 3 185 JIM81 1 15 510
 12 89 174 0 2 61 247 84 3 182 JIc84 3 247 JIK83 3 179 .615686274509804 .8117647
05882353 .929411764705882 80 1 171 248 249 8038 0 0 0 0 0 0 0 0 0 TTTTTTTTTTTTTF
TF10 81 1 172 491 248 1 168 13 0 0 250 98 6 173 80 97 114 116 32 49 80 1 248 251
 252 8017 0 0 0 0 0 0 0 0 0 TTTTTTTTTTTTTFTF3 81 1 13 492 253 1 172 2 0 0 254 84
 6 250 Part 180 1 253 151 255 8040 0 0 0 0 3 5 0 0 0 TTTFFFFFFFFFFFFF2 83 3 254
 .615686274509804 .811764705882353 .929411764705882 79 17 255 SDL/TYSA_COLOUR_27
9 13 252 SDL/TYSA_NAME79 14 249 SDL/TYSA_UNAME84 3 167 JJB79 9 162 BTI/DetId82 3
 158 8 3 1 83 3 154 .615686274509804 .811764705882353 .929411764705882 79 12 150
 BTI/ExportId84 3 146 JJK15 141 141 0 256 134 257 17 256 0 141 256 256 0 119 116
 0 0 -15 257 406 0 104 134 0 17 104 0 257 104 104 0 258 101 0 0 +17 258 0 90 258
 258 0 104 101 0 0 -15 90 411 0 258 89 0 17 119 0 131 119 119 0 256 116 0 0 +15
 131 88 0 119 130 0 84 3 139 JJG17 50 0 77 65 24 40 78 107 0 82 +17 47 0 126 85
 49 59 39 48 0 84 -17 84 0 83 75 79 59 85 87 0 46 +84 3 125 JJF84 3 97 JIl84 3 7
1 JIE84 3 43 JHY84 3 32 JHQ19 19 161 0 1 0 9 5 0 S0 74 20 17 6 0 0 232 168 172 1
3 174 55 0 0 0 0 0 0 0 0 0 0 0 0 0 0 84 3 16 JHD1 0 
